<?xml version="1.0" encoding="UTF-8" standalone="no"?>
<!-- Generator: Adobe Illustrator 16.0.4, SVG Export Plug-In . SVG Version: 6.00 Build 0)  -->

<svg
   xmlns:dc="http://purl.org/dc/elements/1.1/"
   xmlns:cc="http://creativecommons.org/ns#"
   xmlns:rdf="http://www.w3.org/1999/02/22-rdf-syntax-ns#"
   xmlns:svg="http://www.w3.org/2000/svg"
   xmlns="http://www.w3.org/2000/svg"
   xmlns:sodipodi="http://sodipodi.sourceforge.net/DTD/sodipodi-0.dtd"
   xmlns:inkscape="http://www.inkscape.org/namespaces/inkscape"
   version="1.1"
   id="Layer_2"
   x="0px"
   y="0px"
   width="300"
   height="200"
   viewBox="0 0 300 200"
   enable-background="new 0 0 400 194"
   xml:space="preserve"
   inkscape:version="0.91 r13725"
   sodipodi:docname="openup.svg"
   inkscape:export-filename="/Users/greg/Downloads/OpenUp-logo_3.png"
   inkscape:export-xdpi="57.540001"
   inkscape:export-ydpi="57.540001"><metadata
     id="metadata71"><rdf:RDF><cc:Work
         rdf:about=""><dc:format>image/svg+xml</dc:format><dc:type
           rdf:resource="http://purl.org/dc/dcmitype/StillImage" /><dc:title></dc:title></cc:Work></rdf:RDF></metadata><defs
     id="defs69" /><sodipodi:namedview
     pagecolor="#ffffff"
     bordercolor="#666666"
     borderopacity="1"
     objecttolerance="10"
     gridtolerance="10"
     guidetolerance="10"
     inkscape:pageopacity="0"
     inkscape:pageshadow="2"
     inkscape:window-width="1920"
     inkscape:window-height="1056"
     id="namedview67"
     showgrid="false"
     inkscape:zoom="2.192031"
     inkscape:cx="139.26485"
     inkscape:cy="82.669301"
     inkscape:window-x="0"
     inkscape:window-y="24"
     inkscape:window-maximized="1"
     inkscape:current-layer="g3" /><g
     id="g3"
     transform="translate(0,6)"><g
       id="g5"
       transform="matrix(0.77577783,0,0,0.77577783,100.64316,20.729501)"><path
         d="M 56.938,100.484 C 56.938,107.796 55.088,113.546 51.391,117.734 47.693,121.922 42.552,124.015 35.969,124.015 29.24,124.015 24.047,121.958 20.391,117.843 16.735,113.729 14.907,107.921 14.907,100.421 14.907,92.983 16.74,87.218 20.407,83.124 24.073,79.03 29.282,76.983 36.032,76.983 42.594,76.983 47.72,79.066 51.407,83.233 55.094,87.401 56.938,93.151 56.938,100.484 Z M 20.531,100.484 C 20.531,106.672 21.848,111.365 24.484,114.562 27.119,117.76 30.947,119.359 35.968,119.359 41.03,119.359 44.853,117.765 47.437,114.578 50.02,111.39 51.312,106.693 51.312,100.484 51.312,94.338 50.025,89.677 47.453,86.5 44.88,83.323 41.072,81.734 36.031,81.734 30.969,81.734 27.119,83.333 24.484,86.531 21.849,89.729 20.531,94.38 20.531,100.484 Z"
         id="path7"
         inkscape:connector-curvature="0"
         style="fill:#6d6e70" /><path
         d="M 79.722,124.016 C 77.493,124.016 75.456,123.604 73.613,122.782 71.77,121.96 70.222,120.694 68.972,118.985 L 68.597,118.985 C 68.847,120.985 68.972,122.881 68.972,124.673 L 68.972,138.767 63.784,138.767 63.784,89.141 68.003,89.141 68.722,93.829 68.972,93.829 C 70.305,91.954 71.857,90.6 73.628,89.767 75.399,88.934 77.43,88.517 79.722,88.517 84.263,88.517 87.769,90.069 90.238,93.173 92.707,96.277 93.941,100.631 93.941,106.235 93.941,111.86 92.685,116.23 90.175,119.344 87.664,122.459 84.18,124.016 79.722,124.016 Z M 78.972,92.922 C 75.472,92.922 72.941,93.891 71.378,95.828 69.815,97.765 69.013,100.849 68.972,105.078 L 68.972,106.234 C 68.972,111.046 69.774,114.49 71.378,116.562 72.982,118.635 75.555,119.671 79.097,119.671 82.055,119.671 84.372,118.474 86.05,116.077 87.727,113.681 88.566,110.38 88.566,106.171 88.566,101.9 87.727,98.624 86.05,96.343 84.372,94.062 82.013,92.922 78.972,92.922 Z"
         id="path9"
         inkscape:connector-curvature="0"
         style="fill:#6d6e70" /><path
         d="M 114.911,124.016 C 109.849,124.016 105.853,122.475 102.927,119.391 99.999,116.308 98.536,112.027 98.536,106.547 98.536,101.026 99.895,96.641 102.614,93.391 105.333,90.141 108.983,88.516 113.567,88.516 117.858,88.516 121.255,89.928 123.755,92.75 126.255,95.573 127.505,99.297 127.505,103.922 L 127.505,107.203 103.911,107.203 C 104.015,111.224 105.03,114.276 106.958,116.359 108.885,118.443 111.599,119.484 115.099,119.484 118.787,119.484 122.432,118.713 126.037,117.172 L 126.037,121.797 C 124.203,122.589 122.469,123.156 120.834,123.5 119.197,123.844 117.224,124.016 114.911,124.016 Z M 113.505,92.859 C 110.755,92.859 108.562,93.755 106.927,95.547 105.291,97.339 104.327,99.818 104.036,102.985 L 121.942,102.985 C 121.942,99.714 121.213,97.209 119.754,95.469 118.296,93.729 116.213,92.859 113.505,92.859 Z"
         id="path11"
         inkscape:connector-curvature="0"
         style="fill:#6d6e70" /><path
         d="M 157.227,123.391 157.227,101.235 C 157.227,98.443 156.591,96.36 155.321,94.985 154.05,93.61 152.06,92.923 149.352,92.923 145.768,92.923 143.143,93.892 141.477,95.829 139.81,97.767 138.977,100.965 138.977,105.423 L 138.977,123.392 133.789,123.392 133.789,89.142 138.008,89.142 138.852,93.83 139.102,93.83 C 140.164,92.142 141.654,90.835 143.571,89.908 145.487,88.981 147.623,88.517 149.977,88.517 154.102,88.517 157.206,89.512 159.289,91.501 161.372,93.491 162.414,96.673 162.414,101.048 L 162.414,123.392 157.227,123.392 Z"
         id="path13"
         inkscape:connector-curvature="0"
         style="fill:#6d6e70" /><path
         d="M 207.071,77.703 207.071,107.265 C 207.071,112.474 205.498,116.568 202.352,119.546 199.206,122.525 194.883,124.015 189.383,124.015 183.883,124.015 179.627,122.515 176.617,119.515 173.606,116.515 172.101,112.39 172.101,107.14 L 172.101,77.703 177.413,77.703 177.413,107.515 C 177.413,111.327 178.454,114.255 180.538,116.296 182.621,118.338 185.684,119.358 189.726,119.358 193.58,119.358 196.548,118.333 198.632,116.28 200.715,114.228 201.757,111.286 201.757,107.452 L 201.757,77.702 207.071,77.702 Z"
         id="path15"
         inkscape:connector-curvature="0"
         style="fill:#6d6e70" /><path
         d="M 230.481,124.016 C 228.252,124.016 226.215,123.604 224.372,122.782 222.529,121.96 220.981,120.694 219.731,118.985 L 219.356,118.985 C 219.606,120.985 219.731,122.881 219.731,124.673 L 219.731,138.767 214.543,138.767 214.543,89.141 218.762,89.141 219.481,93.829 219.731,93.829 C 221.064,91.954 222.616,90.6 224.387,89.767 226.158,88.934 228.189,88.517 230.481,88.517 235.022,88.517 238.528,90.069 240.997,93.173 243.466,96.277 244.7,100.631 244.7,106.235 244.7,111.86 243.444,116.23 240.934,119.344 238.424,122.459 234.939,124.016 230.481,124.016 Z M 229.731,92.922 C 226.231,92.922 223.7,93.891 222.137,95.828 220.574,97.765 219.772,100.849 219.731,105.078 L 219.731,106.234 C 219.731,111.046 220.533,114.49 222.137,116.562 223.741,118.635 226.314,119.671 229.856,119.671 232.814,119.671 235.131,118.474 236.809,116.077 238.486,113.681 239.325,110.38 239.325,106.171 239.325,101.9 238.486,98.624 236.809,96.343 235.132,94.062 232.772,92.922 229.731,92.922 Z"
         id="path17"
         inkscape:connector-curvature="0"
         style="fill:#6d6e70" /></g><g
       id="g19"
       transform="matrix(0.77577783,0,0,0.77577783,-196.65492,20.729501)"><path
         d="M 293.696,73.025 301.43,60.067 312.377,68.031 321.211,61.345 335.316,71.875 339.984,63.953 351.386,66.241 356.101,57.265 365.396,57.035 371.478,51.913 C 355.874,27.723 330.347,12.105 314.015,16.772 298.464,21.217 285.931,44.66 283.992,71.078 L 293.696,73.025 Z"
         id="path21"
         style="fill:#a4da22;fill-opacity:1"
         inkscape:connector-curvature="0" /><path
         d="M 370.245,101.094 363.118,98.914 357.141,106.939 344.305,99.058 336.362,103.831 326.852,87.613 315.598,91.998 309.598,80.219 301.381,87.311 290.258,77.311 C 285.639,86.5 282.324,96.708 281.088,107.248 276.654,145.033 296.109,169.424 323.26,172.607 350.412,175.791 374.981,156.564 379.412,118.781 380.162,112.39 380.109,105.943 379.428,99.623 L 370.245,101.094 Z"
         id="path23"
         style="fill:#a4da22;fill-opacity:1"
         inkscape:connector-curvature="0" /><g
         id="g25"><path
           d="M 320.114,171.781 C 305.829,171.781 292.864,165.951 283.606,155.364 273.798,144.146 268.614,128.385 268.614,109.781 268.614,69.034 297.413,32.78 320.114,32.78 331.43,32.78 344.383,41.79 354.761,56.882 365.471,72.454 371.614,91.736 371.614,109.781 371.614,128.385 366.429,144.146 356.622,155.364 347.364,165.951 334.399,171.781 320.114,171.781 Z M 320.114,36.78 C 299.374,36.78 272.614,72.18 272.614,109.781 272.614,127.401 277.457,142.253 286.618,152.73 295.104,162.436 307,167.781 320.114,167.781 333.228,167.781 345.124,162.436 353.61,152.73 362.771,142.252 367.614,127.401 367.614,109.781 367.614,92.524 361.728,74.069 351.467,59.148 341.834,45.143 330.113,36.78 320.114,36.78 Z"
           id="path27"
           inkscape:connector-curvature="0"
           style="fill:#6d6e70" /></g><g
         id="g29"><path
           d="M 309.104,160.781 C 308.916,160.781 308.725,160.746 308.54,160.671 278.449,148.43 278.269,112.468 278.271,112.107 278.275,111.281 278.946,110.614 279.771,110.614 279.771,110.614 279.775,110.614 279.777,110.615 280.605,110.618 281.274,111.292 281.271,112.12 281.27,112.462 281.479,146.425 309.67,157.892 310.438,158.204 310.806,159.08 310.494,159.847 310.257,160.429 309.696,160.781 309.104,160.781 Z"
           id="path31"
           inkscape:connector-curvature="0"
           style="fill:#6d6e70" /></g><g
         id="g33"><path
           d="M 345.605,70.031 C 345.034,70.031 344.488,69.702 344.237,69.147 343.704,67.967 343.112,66.795 342.476,65.663 342.07,64.94 342.327,64.026 343.049,63.62 343.771,63.215 344.687,63.472 345.091,64.194 345.77,65.403 346.402,66.653 346.971,67.913 347.312,68.669 346.976,69.557 346.221,69.897 346.021,69.988 345.812,70.031 345.605,70.031 Z"
           id="path35"
           inkscape:connector-curvature="0"
           style="fill:#6d6e70" /></g><g
         id="g37"><path
           stroke-miterlimit="10"
           d="M 342.673,63.052"
           id="path39"
           inkscape:connector-curvature="0"
           style="fill:none;stroke:#6d6e70;stroke-width:3;stroke-linecap:round;stroke-miterlimit:10" /></g><g
         id="g41"><path
           stroke-miterlimit="10"
           d="M 341.62,61.442"
           id="path43"
           inkscape:connector-curvature="0"
           style="fill:none;stroke:#6d6e70;stroke-width:3;stroke-linecap:round;stroke-miterlimit:10" /></g><g
         id="g45"><path
           d="M 341.621,62.942 C 341.142,62.942 340.673,62.713 340.382,62.288 335.222,54.741 329.377,51.095 329.319,51.058 328.614,50.624 328.393,49.701 328.828,48.996 329.263,48.289 330.187,48.071 330.891,48.504 331.152,48.664 337.341,52.527 342.859,60.596 343.327,61.281 343.151,62.213 342.467,62.682 342.208,62.856 341.913,62.942 341.621,62.942 Z"
           id="path47"
           inkscape:connector-curvature="0"
           style="fill:#6d6e70" /></g><g
         id="g49"><path
           d="M 272.77,58.614 C 272.554,58.614 272.335,58.567 272.127,58.468 271.379,58.113 271.061,57.22 271.415,56.472 271.577,56.13 275.479,48.027 284.591,39.675 285.202,39.117 286.151,39.157 286.71,39.767 287.27,40.378 287.229,41.328 286.618,41.887 277.966,49.818 274.163,57.68 274.125,57.759 273.868,58.298 273.33,58.614 272.77,58.614 Z"
           id="path51"
           inkscape:connector-curvature="0"
           style="fill:#6d6e70" /></g><g
         id="g53"><path
           d="M 266.77,54.114 C 266.626,54.114 266.481,54.083 266.342,54.016 265.843,53.78 265.631,53.184 265.867,52.685 266.027,52.348 269.888,44.331 278.929,36.043 279.337,35.67 279.969,35.696 280.342,36.104 280.715,36.512 280.688,37.144 280.28,37.518 271.547,45.524 267.712,53.463 267.674,53.543 267.503,53.903 267.144,54.114 266.77,54.114 Z"
           id="path55"
           inkscape:connector-curvature="0"
           style="fill:#6d6e70" /></g><g
         id="g57"><g
           id="g59"><path
             d="M 372.662,165.844 C 372.359,165.844 372.055,165.753 371.79,165.564 371.116,165.083 370.961,164.145 371.443,163.471 378.271,153.924 380.37,145.446 380.39,145.361 380.584,144.556 381.394,144.061 382.199,144.254 383.004,144.447 383.5,145.256 383.307,146.061 383.219,146.428 381.074,155.164 373.882,165.218 373.591,165.626 373.13,165.844 372.662,165.844 Z"
             id="path61"
             inkscape:connector-curvature="0"
             style="fill:#6d6e70" /></g><g
           id="g63"><path
             d="M 379.359,168.018 C 379.158,168.018 378.955,167.957 378.778,167.831 378.329,167.51 378.225,166.885 378.547,166.435 385.457,156.777 387.551,148.239 387.571,148.154 387.7,147.617 388.24,147.289 388.776,147.414 389.313,147.543 389.644,148.082 389.516,148.619 389.429,148.982 387.308,157.625 380.173,167.599 379.979,167.872 379.671,168.018 379.359,168.018 Z"
             id="path65"
             inkscape:connector-curvature="0"
             style="fill:#6d6e70" /></g></g></g></g></svg>