<?xml version="1.0" encoding="UTF-8" standalone="no"?>
<!-- Created with Inkscape (http://www.inkscape.org/) -->

<svg
   xmlns:dc="http://purl.org/dc/elements/1.1/"
   xmlns:cc="http://creativecommons.org/ns#"
   xmlns:rdf="http://www.w3.org/1999/02/22-rdf-syntax-ns#"
   xmlns:svg="http://www.w3.org/2000/svg"
   xmlns="http://www.w3.org/2000/svg"
   xmlns:sodipodi="http://sodipodi.sourceforge.net/DTD/sodipodi-0.dtd"
   xmlns:inkscape="http://www.inkscape.org/namespaces/inkscape"
   width="60"
   height="40"
   viewBox="0 0 60.000003 39.999999"
   id="svg2"
   version="1.1"
   inkscape:version="0.91 r13725"
   sodipodi:docname="newlab.svg">
  <defs
     id="defs4" />
  <sodipodi:namedview
     id="base"
     pagecolor="#ffffff"
     bordercolor="#666666"
     borderopacity="1.0"
     inkscape:pageopacity="0.0"
     inkscape:pageshadow="2"
     inkscape:zoom="11.313709"
     inkscape:cx="37.332664"
     inkscape:cy="22.855965"
     inkscape:document-units="px"
     inkscape:current-layer="layer1"
     showgrid="false"
     units="px"
     inkscape:window-width="1366"
     inkscape:window-height="750"
     inkscape:window-x="0"
     inkscape:window-y="0"
     inkscape:window-maximized="1"
     inkscape:snap-bbox="false"
     inkscape:bbox-paths="true"
     inkscape:snap-bbox-edge-midpoints="true"
     inkscape:bbox-nodes="true"
     inkscape:snap-bbox-midpoints="true">
    <inkscape:grid
       type="xygrid"
       id="grid4405" />
  </sodipodi:namedview>
  <metadata
     id="metadata7">
    <rdf:RDF>
      <cc:Work
         rdf:about="">
        <dc:format>image/svg+xml</dc:format>
        <dc:type
           rdf:resource="http://purl.org/dc/dcmitype/StillImage" />
        <dc:title />
      </cc:Work>
    </rdf:RDF>
  </metadata>
  <g
     inkscape:label="Layer 1"
     inkscape:groupmode="layer"
     id="layer1"
     transform="translate(0,-1012.3622)">
    <rect
       style="fill:#f8f9fa;fill-opacity:1;stroke:none;stroke-width:1;stroke-miterlimit:4;stroke-dasharray:none;stroke-opacity:1"
       id="rect4409"
       width="60.000004"
       height="40.000004"
       x="0"
       y="1012.3622" />
    <rect
       style="fill:#fdaf17;fill-opacity:1;stroke:none;stroke-width:1;stroke-miterlimit:4;stroke-dasharray:none;stroke-opacity:1"
       id="rect4146"
       width="4.5535712"
       height="50.000008"
       x="299.69153"
       y="962.8678"
       transform="matrix(0.96592582,0.25881906,-0.25881903,0.96592583,0,0)" />
    <rect
       style="fill:#fdaf17;fill-opacity:1;stroke:none;stroke-width:1;stroke-miterlimit:4;stroke-dasharray:none;stroke-opacity:1"
       id="rect4146-3"
       width="4.5535717"
       height="50.000008"
       x="288.1004"
       y="965.97363"
       transform="matrix(0.96592582,0.25881906,-0.25881903,0.96592583,0,0)" />
    <path
       inkscape:connector-curvature="0"
       id="path4314"
       style="font-style:normal;font-variant:normal;font-weight:normal;font-stretch:normal;font-size:15.00000095px;line-height:125%;font-family:Kollektif;-inkscape-font-specification:Kollektif;text-align:center;letter-spacing:0px;word-spacing:0px;text-anchor:middle;fill:#000000;fill-opacity:1;stroke:none;stroke-width:1px;stroke-linecap:butt;stroke-linejoin:miter;stroke-opacity:1"
       d="m 29.410782,1017.6022 1.575,0 0,10.635 -1.56,0 0,-8.16 -3.105,4.275 -1.215,0 -3.12,-4.275 0,8.16 -1.575,0 0,-10.635 1.575,0 3.72,5.115 3.705,-5.115 z" />
    <path
       inkscape:connector-curvature="0"
       id="path4316"
       style="font-style:normal;font-variant:normal;font-weight:normal;font-stretch:normal;font-size:15.00000095px;line-height:125%;font-family:Kollektif;-inkscape-font-specification:Kollektif;text-align:center;letter-spacing:0px;word-spacing:0px;text-anchor:middle;fill:#000000;fill-opacity:1;stroke:none;stroke-width:1px;stroke-linecap:butt;stroke-linejoin:miter;stroke-opacity:1"
       d="m 35.759064,1023.2572 -3.75,-5.655 1.875,0 2.655,3.99 2.655,-3.99 1.89,0 -3.75,5.655 0,4.98 -1.575,0 0,-4.98 z" />
    <path
       inkscape:connector-curvature="0"
       id="path4318"
       style="font-style:normal;font-variant:normal;font-weight:normal;font-stretch:normal;font-size:15.00000095px;line-height:125%;font-family:Kollektif;-inkscape-font-specification:Kollektif;text-align:center;letter-spacing:0px;word-spacing:0px;text-anchor:middle;fill:#000000;fill-opacity:1;stroke:none;stroke-width:1px;stroke-linecap:butt;stroke-linejoin:miter;stroke-opacity:1"
       d="m 11.069297,1037.7622 -2.8800005,0 0,-1.41 7.3350005,0 0,1.41 -2.895,0 0,9.225 -1.56,0 0,-9.225 z" />
    <path
       style="font-style:normal;font-variant:normal;font-weight:normal;font-stretch:normal;font-size:15.00000095px;line-height:125%;font-family:Kollektif;-inkscape-font-specification:Kollektif;text-align:center;letter-spacing:0px;word-spacing:0px;text-anchor:middle;fill:#000000;fill-opacity:1;stroke:none;stroke-width:1px;stroke-linecap:butt;stroke-linejoin:miter;stroke-opacity:1"
       d="M 21.710938 23.839844 C 20.990938 23.839844 20.311875 23.985391 19.671875 24.275391 C 19.031875 24.565391 18.472187 24.960938 17.992188 25.460938 C 17.512188 25.950937 17.131562 26.529219 16.851562 27.199219 C 16.581563 27.859219 16.447266 28.560781 16.447266 29.300781 C 16.447266 30.050781 16.581563 30.754063 16.851562 31.414062 C 17.131562 32.074062 17.506563 32.654297 17.976562 33.154297 C 18.012057 33.190531 18.055427 33.216813 18.091797 33.251953 L 18.59375 31.384766 C 18.496252 31.21617 18.400083 31.046137 18.322266 30.859375 C 18.132266 30.369375 18.037109 29.850781 18.037109 29.300781 C 18.037109 28.750781 18.132266 28.235859 18.322266 27.755859 C 18.522266 27.275859 18.787188 26.854141 19.117188 26.494141 C 19.447187 26.134141 19.831484 25.854297 20.271484 25.654297 C 20.721484 25.444297 21.200938 25.339844 21.710938 25.339844 C 22.220937 25.339844 22.696719 25.444297 23.136719 25.654297 C 23.586719 25.854297 23.976641 26.134141 24.306641 26.494141 C 24.636641 26.854141 24.895938 27.275859 25.085938 27.755859 C 25.275937 28.235859 25.371094 28.750781 25.371094 29.300781 C 25.371094 29.850781 25.275937 30.369375 25.085938 30.859375 C 24.895938 31.339375 24.636641 31.759141 24.306641 32.119141 C 23.976641 32.479141 23.586719 32.764609 23.136719 32.974609 C 23.047062 33.015363 22.949985 33.033957 22.857422 33.066406 L 22.417969 34.703125 C 22.874132 34.637915 23.314859 34.515197 23.736328 34.324219 C 24.376328 34.034219 24.936016 33.644297 25.416016 33.154297 C 25.896016 32.654297 26.276641 32.074062 26.556641 31.414062 C 26.836641 30.754063 26.976562 30.050781 26.976562 29.300781 C 26.976562 28.560781 26.836641 27.859219 26.556641 27.199219 C 26.276641 26.529219 25.896016 25.950937 25.416016 25.460938 C 24.946016 24.960938 24.391953 24.565391 23.751953 24.275391 C 23.111953 23.985391 22.430937 23.839844 21.710938 23.839844 z "
       transform="translate(0,1012.3622)"
       id="path4320" />
    <path
       inkscape:connector-curvature="0"
       id="path4322"
       style="font-style:normal;font-variant:normal;font-weight:normal;font-stretch:normal;font-size:15.00000095px;line-height:125%;font-family:Kollektif;-inkscape-font-specification:Kollektif;text-align:center;letter-spacing:0px;word-spacing:0px;text-anchor:middle;fill:#000000;fill-opacity:1;stroke:none;stroke-width:1px;stroke-linecap:butt;stroke-linejoin:miter;stroke-opacity:1"
       d="m 39.810237,1036.3522 1.755,0 -3.195,10.635 -1.530001,0 -1.98,-6.615 -0.255,-1.2 -0.27,1.26 -1.965,6.555 -1.545,0 -3.195,-10.635 1.725,0 2.19,8.1 2.475,-8.1 1.185,0 2.445001,8.025 2.16,-8.025 z" />
    <path
       inkscape:connector-curvature="0"
       id="path4324"
       style="font-style:normal;font-variant:normal;font-weight:normal;font-stretch:normal;font-size:15.00000095px;line-height:125%;font-family:Kollektif;-inkscape-font-specification:Kollektif;text-align:center;letter-spacing:0px;word-spacing:0px;text-anchor:middle;fill:#000000;fill-opacity:1;stroke:none;stroke-width:1px;stroke-linecap:butt;stroke-linejoin:miter;stroke-opacity:1"
       d="m 51.810707,1036.3522 0,10.635 -1.59,0 -5.94,-8.16 0,8.16 -1.635,0 0,-10.635 1.65,0 5.94,8.205 0,-8.205 1.575,0 z" />
  </g>
</svg>
