<?xml version="1.0" encoding="UTF-8" standalone="no"?>
<!-- Created with Inkscape (http://www.inkscape.org/) -->

<svg
   xmlns:dc="http://purl.org/dc/elements/1.1/"
   xmlns:cc="http://creativecommons.org/ns#"
   xmlns:rdf="http://www.w3.org/1999/02/22-rdf-syntax-ns#"
   xmlns:svg="http://www.w3.org/2000/svg"
   xmlns="http://www.w3.org/2000/svg"
   xmlns:sodipodi="http://sodipodi.sourceforge.net/DTD/sodipodi-0.dtd"
   xmlns:inkscape="http://www.inkscape.org/namespaces/inkscape"
   width="700"
   height="384"
   viewBox="0 0 700.00003 383.99999"
   id="svg2"
   version="1.1"
   inkscape:version="0.92.2 (5c3e80d, 2017-08-06)"
   sodipodi:docname="newlab.svg">
  <defs
     id="defs4" />
  <sodipodi:namedview
     id="base"
     pagecolor="#ffffff"
     bordercolor="#666666"
     borderopacity="1.0"
     inkscape:pageopacity="0.0"
     inkscape:pageshadow="2"
     inkscape:zoom="0.70710681"
     inkscape:cx="320.49436"
     inkscape:cy="206.00548"
     inkscape:document-units="px"
     inkscape:current-layer="layer1"
     showgrid="false"
     units="px"
     inkscape:window-width="1366"
     inkscape:window-height="748"
     inkscape:window-x="0"
     inkscape:window-y="0"
     inkscape:window-maximized="1"
     inkscape:snap-bbox="false"
     inkscape:bbox-paths="true"
     inkscape:snap-bbox-edge-midpoints="true"
     inkscape:bbox-nodes="true"
     inkscape:snap-bbox-midpoints="true">
    <inkscape:grid
       type="xygrid"
       id="grid4405" />
  </sodipodi:namedview>
  <metadata
     id="metadata7">
    <rdf:RDF>
      <cc:Work
         rdf:about="">
        <dc:format>image/svg+xml</dc:format>
        <dc:type
           rdf:resource="http://purl.org/dc/dcmitype/StillImage" />
        <dc:title></dc:title>
      </cc:Work>
    </rdf:RDF>
  </metadata>
  <g
     inkscape:label="Layer 1"
     inkscape:groupmode="layer"
     id="layer1"
     transform="translate(0,-668.3622)">
    <rect
       style="fill:#f8f9fa;fill-opacity:1;stroke:none;stroke-width:10.583004;stroke-miterlimit:4;stroke-dasharray:none;stroke-opacity:1"
       id="rect4409"
       width="700"
       height="384"
       x="0"
       y="668.36212" />
    <g
       id="g833"
       transform="translate(140.447,31.646768)">
      <rect
         transform="rotate(15.000001)"
         y="501.09598"
         x="449.3862"
         height="461.61676"
         width="42.040089"
         id="rect4146"
         style="fill:#fdaf17;fill-opacity:1;stroke:none;stroke-width:9.23233318;stroke-miterlimit:4;stroke-dasharray:none;stroke-opacity:1" />
      <rect
         transform="rotate(15.000001)"
         y="529.77008"
         x="342.37308"
         height="461.61676"
         width="42.040092"
         id="rect4146-3"
         style="fill:#fdaf17;fill-opacity:1;stroke:none;stroke-width:9.23233318;stroke-miterlimit:4;stroke-dasharray:none;stroke-opacity:1" />
      <path
         d="m 204.11313,692.44642 h 14.54093 v 98.18586 h -14.40245 v -75.33584 l -28.66639,39.46823 h -11.21728 l -28.80489,-39.46823 v 75.33584 h -14.54092 v -98.18586 h 14.54092 l 34.34428,47.22338 z"
         style="font-style:normal;font-variant:normal;font-weight:normal;font-stretch:normal;font-size:15.00000095px;line-height:125%;font-family:Kollektif;-inkscape-font-specification:Kollektif;text-align:center;letter-spacing:0px;word-spacing:0px;text-anchor:middle;fill:#000000;fill-opacity:1;stroke:none;stroke-width:9.23233318px;stroke-linecap:butt;stroke-linejoin:miter;stroke-opacity:1"
         id="path4314"
         inkscape:connector-curvature="0" />
      <path
         d="m 262.72259,744.65527 -34.62125,-52.20885 h 17.31062 l 24.51185,36.83701 24.51184,-36.83701 h 17.44912 l -34.62126,52.20885 v 45.97701 h -14.54092 z"
         style="font-style:normal;font-variant:normal;font-weight:normal;font-stretch:normal;font-size:15.00000095px;line-height:125%;font-family:Kollektif;-inkscape-font-specification:Kollektif;text-align:center;letter-spacing:0px;word-spacing:0px;text-anchor:middle;fill:#000000;fill-opacity:1;stroke:none;stroke-width:9.23233318px;stroke-linecap:butt;stroke-linejoin:miter;stroke-opacity:1"
         id="path4316"
         inkscape:connector-curvature="0" />
      <path
         d="M 34.778422,878.57026 H 8.1892965 V 865.55268 H 75.908468 v 13.01758 H 49.180862 v 85.16828 h -14.40244 z"
         style="font-style:normal;font-variant:normal;font-weight:normal;font-stretch:normal;font-size:15.00000095px;line-height:125%;font-family:Kollektif;-inkscape-font-specification:Kollektif;text-align:center;letter-spacing:0px;word-spacing:0px;text-anchor:middle;fill:#000000;fill-opacity:1;stroke:none;stroke-width:9.23233318px;stroke-linecap:butt;stroke-linejoin:miter;stroke-opacity:1"
         id="path4318"
         inkscape:connector-curvature="0" />
      <path
         inkscape:connector-curvature="0"
         id="path4320"
         d="m 133.0256,864.16638 c -6.64728,0 -12.91661,1.34374 -18.82531,4.02112 -5.90869,2.67737 -11.07592,6.32919 -15.507429,10.94536 -4.43152,4.52383 -7.945586,9.86273 -10.53064,16.0484 -2.492721,6.09333 -3.732596,12.57038 -3.732596,19.40232 0,6.92425 1.239875,13.41717 3.732596,19.5105 2.585054,6.09335 6.047188,11.45027 10.386375,16.06644 0.327656,0.33448 0.728155,0.5772 1.063888,0.90162 l 4.634196,-17.23848 c -0.90015,-1.55654 -1.788,-3.12634 -2.50643,-4.85059 -1.754142,-4.52384 -2.632664,-9.31167 -2.632664,-14.38946 0,-5.07778 0.878549,-9.83172 2.632664,-14.26324 1.84647,-4.43151 4.29232,-8.32496 7.33899,-11.6486 3.04666,-3.32364 6.59462,-5.90725 10.65685,-7.75372 4.15454,-1.93878 8.58103,-2.90313 13.28951,-2.90313 4.70849,0 9.10106,0.96435 13.16329,2.90313 4.15455,1.84647 7.75444,4.43008 10.80111,7.75372 3.04667,3.32364 5.44058,7.21709 7.19473,11.6486 1.75413,4.43152 2.63265,9.18546 2.63265,14.26324 0,5.07779 -0.87854,9.86562 -2.63265,14.38946 -1.75415,4.43152 -4.14806,8.30694 -7.19473,11.63058 -3.04667,3.32364 -6.64656,5.95918 -10.80111,7.89796 -0.82777,0.37622 -1.72399,0.54794 -2.57857,0.84753 l -4.05717,15.11074 c 4.21145,-0.60204 8.28039,-1.73501 12.17152,-3.49818 5.9087,-2.67738 11.07592,-6.27727 15.50744,-10.80111 4.43153,-4.61617 7.94559,-9.97309 10.53064,-16.06644 2.58505,-6.09333 3.87684,-12.58626 3.87684,-19.51051 0,-6.83193 -1.29179,-13.30898 -3.87684,-19.40232 -2.58505,-6.18566 -6.09911,-11.52456 -10.53064,-16.04839 -4.33919,-4.61617 -9.45448,-8.26799 -15.36318,-10.94536 -5.90869,-2.67739 -12.19606,-4.02113 -18.84333,-4.02113 z"
         style="font-style:normal;font-variant:normal;font-weight:normal;font-stretch:normal;font-size:15.00000095px;line-height:125%;font-family:Kollektif;-inkscape-font-specification:Kollektif;text-align:center;letter-spacing:0px;word-spacing:0px;text-anchor:middle;fill:#000000;fill-opacity:1;stroke:none;stroke-width:9.23233318px;stroke-linecap:butt;stroke-linejoin:miter;stroke-opacity:1" />
      <path
         d="m 300.12436,865.55268 h 16.20276 l -29.49732,98.18586 h -14.12547 l -18.28003,-61.07189 -2.35424,-11.0788 -2.49273,11.63275 -18.14153,60.51794 h -14.26396 l -29.4973,-98.18586 h 15.92577 l 20.21881,74.78189 22.85003,-74.78189 h 10.94032 l 22.57305,74.08947 z"
         style="font-style:normal;font-variant:normal;font-weight:normal;font-stretch:normal;font-size:15.00000095px;line-height:125%;font-family:Kollektif;-inkscape-font-specification:Kollektif;text-align:center;letter-spacing:0px;word-spacing:0px;text-anchor:middle;fill:#000000;fill-opacity:1;stroke:none;stroke-width:9.23233318px;stroke-linecap:butt;stroke-linejoin:miter;stroke-opacity:1"
         id="path4322"
         inkscape:connector-curvature="0" />
      <path
         d="m 410.91671,865.55268 v 98.18586 H 396.23729 L 341.39723,888.4027 v 75.33584 h -15.09485 v -98.18586 h 15.23334 l 54.84006,75.75129 v -75.75129 z"
         style="font-style:normal;font-variant:normal;font-weight:normal;font-stretch:normal;font-size:15.00000095px;line-height:125%;font-family:Kollektif;-inkscape-font-specification:Kollektif;text-align:center;letter-spacing:0px;word-spacing:0px;text-anchor:middle;fill:#000000;fill-opacity:1;stroke:none;stroke-width:9.23233318px;stroke-linecap:butt;stroke-linejoin:miter;stroke-opacity:1"
         id="path4324"
         inkscape:connector-curvature="0" />
    </g>
  </g>
</svg>
